<svg xmlns="http://www.w3.org/2000/svg" width="252.362" height="53" viewBox="0 0 252.362 53">
  <g id="Group_8725" data-name="Group 8725" transform="translate(1003.023 826)">
    <g id="Group_8724" data-name="Group 8724" transform="translate(-905.554 -815.333)">
      <path id="Path_1703" data-name="Path 1703" d="M-35.09-15.738a4.08,4.08,0,0,1,4.023,4.1V-2.2A2.16,2.16,0,0,0-28.916-.086,2.125,2.125,0,0,0-26.805-2.2v-9.439A8.321,8.321,0,0,0-35.09-20a8.2,8.2,0,0,0-6.253,2.748A8.265,8.265,0,0,0-47.6-20a8.381,8.381,0,0,0-4.262,1.195A2.021,2.021,0,0,0-53.769-20a2.108,2.108,0,0,0-2.111,2.151V-2.2A2.168,2.168,0,0,0-54.167-.126c.119,0,.239.04.4.04A2.324,2.324,0,0,0-51.778-1.36v-.2c.08-.08.08-.159.119-.239v-.119c0-.08.04-.2.04-.279v-9.439a4.08,4.08,0,0,1,4.023-4.1,4.1,4.1,0,0,1,4.1,3.983V-2.2A2.187,2.187,0,0,0-41.343-.086,2.125,2.125,0,0,0-39.232-2.2v-9.559A4.134,4.134,0,0,1-35.09-15.738ZM-12.467-.086A10.065,10.065,0,0,0-5.338-2.714a1.82,1.82,0,0,0,0-2.589,2.254,2.254,0,0,0-2.987.119,6.509,6.509,0,0,1-4.142,1A6.162,6.162,0,0,1-16.291-5.98a5.222,5.222,0,0,1-1.354-2.629H-4.979A1.919,1.919,0,0,0-2.908-10.2a1.1,1.1,0,0,0,.04-.358v-.2a9.526,9.526,0,0,0-9.6-9.24,9.86,9.86,0,0,0-9.718,9.957A9.886,9.886,0,0,0-12.467-.086Zm0-16.131a6.511,6.511,0,0,1,5.895,4.222H-17.844A5.565,5.565,0,0,1-12.467-16.216Z" transform="translate(157.761 20)" fill="#523b5d"/>
      <path id="Path_1704" data-name="Path 1704" d="M12.4.034A8.807,8.807,0,0,0,19.05-2.993,9.639,9.639,0,0,0,21.838-10a9.951,9.951,0,0,0-2.788-6.97A8.807,8.807,0,0,0,12.4-20a9.3,9.3,0,0,0-6.85,3.027A10.276,10.276,0,0,0,2.8-10a9.94,9.94,0,0,0,2.748,7.01A9.3,9.3,0,0,0,12.4.034ZM8.575-14.145A5.791,5.791,0,0,1,12.4-15.659a5.627,5.627,0,0,1,3.664,1.513A5.99,5.99,0,0,1,17.616-10a6.12,6.12,0,0,1-1.553,4.222A5.215,5.215,0,0,1,12.4-4.308,5.39,5.39,0,0,1,8.575-5.781,6.441,6.441,0,0,1,7.141-10,6.3,6.3,0,0,1,8.575-14.145ZM40.478-20a2.042,2.042,0,0,0-2.071,2.111v9.4a4.038,4.038,0,0,1-4.1,4.062A4.072,4.072,0,0,1,30.162-8.49v-9.4A2.051,2.051,0,0,0,28.051-20a2.117,2.117,0,0,0-2.071,2.111v9.4A8.38,8.38,0,0,0,34.3-.126a7.74,7.74,0,0,0,3.784-.956,5.265,5.265,0,0,1-4.979,3.624,5.327,5.327,0,0,1-2.31-.558,2.189,2.189,0,0,0-2.828.876,2.084,2.084,0,0,0,1.036,2.828,9.443,9.443,0,0,0,4.1,1,9.443,9.443,0,0,0,9.519-9.519V-17.889A2.133,2.133,0,0,0,40.478-20ZM64.534-8.37v-9.519A2.215,2.215,0,0,0,62.383-20a2.09,2.09,0,0,0-2.071,2.111V-8.37A4.131,4.131,0,0,1,56.13-4.308,4.029,4.029,0,0,1,52.068-8.37v-9.519A2.125,2.125,0,0,0,49.957-20a2.151,2.151,0,0,0-2.111,2.111V-8.37A8.329,8.329,0,0,0,56.13-.086,8.407,8.407,0,0,0,64.534-8.37Zm26.127-7.368a4.08,4.08,0,0,1,4.023,4.1V-2.2A2.16,2.16,0,0,0,96.835-.086,2.125,2.125,0,0,0,98.946-2.2v-9.439A8.321,8.321,0,0,0,90.662-20a8.2,8.2,0,0,0-6.253,2.748A8.265,8.265,0,0,0,78.155-20a8.381,8.381,0,0,0-4.262,1.195A2.021,2.021,0,0,0,71.982-20a2.108,2.108,0,0,0-2.111,2.151V-2.2A2.168,2.168,0,0,0,71.584-.126c.119,0,.239.04.4.04A2.325,2.325,0,0,0,73.973-1.36v-.2c.08-.08.08-.159.119-.239v-.119c0-.08.04-.2.04-.279v-9.439a4.08,4.08,0,0,1,4.023-4.1,4.1,4.1,0,0,1,4.1,3.983V-2.2A2.187,2.187,0,0,0,84.408-.086,2.125,2.125,0,0,0,86.519-2.2v-9.559A4.134,4.134,0,0,1,90.662-15.738Z" transform="translate(-2.8 20)" fill="#ffb300"/>
    </g>
    <path id="Path_1716" data-name="Path 1716" d="M-169.807-33.248a.276.276,0,0,0,.247.172c.032,0,.054-.011.1-.011a.27.27,0,0,0,.14-.344l-2.612-6.976a.265.265,0,0,0-.258-.161.287.287,0,0,0-.258.161l-2.612,6.976a.275.275,0,0,0,.15.344c.032,0,.075.011.1.011a.265.265,0,0,0,.247-.172l.666-1.774h3.429Zm-2.376-6.342,1.516,4.042h-3.042Zm4.493,6.256a.262.262,0,0,0,.258.258.264.264,0,0,0,.269-.258v-7.008a.264.264,0,0,0-.269-.258.262.262,0,0,0-.258.258Zm2.6,2.2a.262.262,0,0,0,.258.258.264.264,0,0,0,.269-.258v-3.01a2.473,2.473,0,0,0,2,1.032,2.59,2.59,0,0,0,2.548-2.623,2.574,2.574,0,0,0-2.548-2.612,2.493,2.493,0,0,0-2,1.021v-.763a.264.264,0,0,0-.269-.258.262.262,0,0,0-.258.258v6.955Zm.527-4.687a2.045,2.045,0,0,1,2-2,2.047,2.047,0,0,1,2.021,2.085,2.073,2.073,0,0,1-2.021,2.107,2.076,2.076,0,0,1-2-2.107Zm10.437,2.483a.262.262,0,0,0,.258.258.264.264,0,0,0,.269-.258v-2.935a2.1,2.1,0,0,0-2.2-2.075,2.176,2.176,0,0,0-1.666.774v-2.773a.264.264,0,0,0-.269-.258.262.262,0,0,0-.258.258v7.008a.237.237,0,0,0,.011.086.322.322,0,0,0,.043.086.294.294,0,0,0,.2.086h.054a.038.038,0,0,0,.021-.011.246.246,0,0,0,.161-.129c.011-.011.011-.021.021-.043s.011-.021.011-.043v-2.967a1.57,1.57,0,0,1,1.666-1.548,1.574,1.574,0,0,1,1.677,1.548Zm7.309-5.009a.255.255,0,0,0-.258.258v.774a2.448,2.448,0,0,0-1.978-1.032,2.569,2.569,0,0,0-2.494,2.634,2.569,2.569,0,0,0,2.494,2.634,2.459,2.459,0,0,0,1.978-1.043v.785a.262.262,0,0,0,.258.258.262.262,0,0,0,.258-.258v-4.751A.255.255,0,0,0-146.814-38.343Zm-2.236,4.751a2.054,2.054,0,0,1-1.978-2.118,2.064,2.064,0,0,1,1.978-2.128,2.057,2.057,0,0,1,1.978,2.128A2.047,2.047,0,0,1-149.05-33.592Zm9.7.494c.011.011.011.011.021.011a.237.237,0,0,0,.086.011.229.229,0,0,0,.172-.075.363.363,0,0,0,.064-.129l1.967-4.665a.252.252,0,0,0-.129-.333.253.253,0,0,0-.333.14l-1.752,4.149-1.752-4.149a.253.253,0,0,0-.333-.14.262.262,0,0,0-.129.333l1.978,4.708a.337.337,0,0,0,.086.118C-139.387-33.108-139.376-33.1-139.355-33.1Zm4.934-1.118a2.329,2.329,0,0,0,1.881,1.139,2.329,2.329,0,0,0,1.881-1.139,4.824,4.824,0,0,0,.731-2.623,4.889,4.889,0,0,0-.731-2.634A2.343,2.343,0,0,0-132.54-40.6a2.343,2.343,0,0,0-1.881,1.129,4.793,4.793,0,0,0-.72,2.634A4.73,4.73,0,0,0-134.421-34.215Zm.441-4.955a1.758,1.758,0,0,1,1.44-.9,1.772,1.772,0,0,1,1.44.9,4.268,4.268,0,0,1,.645,2.333,4.268,4.268,0,0,1-.645,2.333,1.824,1.824,0,0,1-1.44.9,1.809,1.809,0,0,1-1.44-.9,4.267,4.267,0,0,1-.634-2.333A4.267,4.267,0,0,1-133.98-39.17Zm6.439,5.557a.532.532,0,0,0,.537.537.532.532,0,0,0,.537-.537.532.532,0,0,0-.537-.537A.532.532,0,0,0-127.541-33.613Zm4.149.537a2.612,2.612,0,0,0,1.806-.742,2.52,2.52,0,0,0,.742-1.806,2.485,2.485,0,0,0-.742-1.806,2.478,2.478,0,0,0-1.8-.742,2.535,2.535,0,0,0-1.279.344l.269-2.236h3.278a.26.26,0,0,0,.269-.269.266.266,0,0,0-.269-.269h-3.5a.244.244,0,0,0-.172.064.226.226,0,0,0-.107.193l-.365,3.031a.465.465,0,0,1-.011.054.21.21,0,0,0,.011.086.039.039,0,0,0,.011.032v.011a.167.167,0,0,0,.064.086.26.26,0,0,0,.376,0,1.992,1.992,0,0,1,1.43-.591,2,2,0,0,1,1.419.58,2.007,2.007,0,0,1,.58,1.43,1.985,1.985,0,0,1-.591,1.419,1.985,1.985,0,0,1-1.419.591,2.019,2.019,0,0,1-1.419-.58.272.272,0,0,0-.387,0,.26.26,0,0,0,0,.376A2.546,2.546,0,0,0-123.392-33.076Zm4.826-.537a.532.532,0,0,0,.537.537.532.532,0,0,0,.537-.537.532.532,0,0,0-.537-.537A.532.532,0,0,0-118.566-33.613Zm2.795-.6a2.329,2.329,0,0,0,1.881,1.139,2.329,2.329,0,0,0,1.881-1.139,4.824,4.824,0,0,0,.731-2.623,4.889,4.889,0,0,0-.731-2.634A2.343,2.343,0,0,0-113.89-40.6a2.343,2.343,0,0,0-1.881,1.129,4.793,4.793,0,0,0-.72,2.634A4.731,4.731,0,0,0-115.771-34.215Zm.441-4.955a1.758,1.758,0,0,1,1.44-.9,1.772,1.772,0,0,1,1.44.9,4.269,4.269,0,0,1,.645,2.333,4.269,4.269,0,0,1-.645,2.333,1.824,1.824,0,0,1-1.44.9,1.809,1.809,0,0,1-1.44-.9,4.267,4.267,0,0,1-.634-2.333A4.267,4.267,0,0,1-115.33-39.17Z" transform="translate(-684.882 -742.484)" fill="#707793"/>
    <g id="Group_8722" data-name="Group 8722" transform="translate(-1003.023 -826)">
      <g id="Group_8682" data-name="Group 8682" transform="translate(0 0)">
        <circle id="Ellipse_745" data-name="Ellipse 745" cx="26.5" cy="26.5" r="26.5" transform="translate(32)" fill="#ffb300"/>
        <circle id="Ellipse_744" data-name="Ellipse 744" cx="26.5" cy="26.5" r="26.5" fill="#523b5d"/>
      </g>
      <g id="Layer_2" data-name="Layer 2" transform="matrix(0.951, 0.309, -0.309, 0.951, 16.164, 12.2)">
        <g id="Layer_1" data-name="Layer 1" transform="translate(0 0)">
          <path id="Path_1688" data-name="Path 1688" d="M50.213.506c2.425,1.3,3.151,5.487,1.311,5.487a.984.984,0,0,1-.977-1.075,2.994,2.994,0,0,0-.4-1.842C43.609,17.563,27.4,24.561,13.467,15.879A29.376,29.376,0,0,1,2.38,3.076a3.011,3.011,0,0,0-.4,1.842A.979.979,0,0,1,.027,5.1,4.443,4.443,0,0,1,7.41,1.143.981.981,0,0,1,6.17,2.663a2.875,2.875,0,0,0-2.122-.672A27.579,27.579,0,0,0,13.474,13.54c2.708-6.966,2.962-8.985,6.084-10.366A6.53,6.53,0,0,1,28.175,6.53c1.374,3.109.166,4.853-2.295,11.194,8.531.329,18.015-5.3,22.6-15.723a2.882,2.882,0,0,0-2.125.672.982.982,0,0,1-1.383-.142C43.793,1.068,47.585-.907,50.213.506ZM26.459,10.818A4.577,4.577,0,1,0,17.925,7.5l-2.767,7.111A24.361,24.361,0,0,0,18.4,16.194L21.272,8.8a.98.98,0,0,1,1.831.7L20.26,16.835a21.63,21.63,0,0,0,3.57.742Z" fill="#fff"/>
        </g>
      </g>
    </g>
  </g>
</svg>
