<svg version="1.0" xmlns="http://www.w3.org/2000/svg"
 width="70.000000pt" height="66.000000pt" viewBox="0 0 70.000000 66.000000"
 preserveAspectRatio="xMidYMid meet">
<metadata>
Created by potrace 1.16, written by Peter Selinger 2001-2019
</metadata>
<g transform="translate(0.000000,66.000000) scale(0.100000,-0.100000)"
fill="#0096ff" stroke="none">
<path d="M181 325 c-89 -151 -161 -277 -161 -280 0 -3 63 -5 140 -5 l140 0 0
55 0 55 -41 0 c-49 0 -50 -8 29 128 59 102 61 103 75 80 31 -50 117 -199 117
-203 0 -3 -18 -5 -40 -5 l-40 0 0 -55 0 -55 141 0 c77 0 138 3 136 8 -44 84
-322 552 -327 552 -5 0 -80 -124 -169 -275z"/>
</g>
</svg>
