<svg xmlns="http://www.w3.org/2000/svg" xmlns:xlink="http://www.w3.org/1999/xlink" width="150.766" height="39.176" viewBox="0 0 150.766 39.176">
  <defs>
    <linearGradient id="linear-gradient" x1="0.511" y1="0.494" x2="1.069" y2="1.413" gradientUnits="objectBoundingBox">
      <stop offset="0" stop-color="#fc0"/>
      <stop offset="1" stop-color="#ff8801"/>
    </linearGradient>
    <linearGradient id="linear-gradient-2" x1="0.5" x2="0.5" y2="1.038" gradientUnits="objectBoundingBox">
      <stop offset="0" stop-color="#0063f8"/>
      <stop offset="1" stop-color="#5433ff"/>
    </linearGradient>
  </defs>
  <g id="Group_8550" data-name="Group 8550" transform="translate(14320.97 4699)">
    <path id="Path_1258" data-name="Path 1258" d="M-387.135-171.329h5.491l-10.11-22.611h-5.168L-407-171.329h5.362l2-4.845h10.5Zm-10.821-8.818,3.585-8.657,3.585,8.657Zm20.834-10.982a2.9,2.9,0,0,0,3.133-2.907,2.829,2.829,0,0,0-3.133-2.713,2.88,2.88,0,0,0-3.133,2.81A2.88,2.88,0,0,0-377.121-191.13Zm-2.52,19.8h5.039v-17.378h-5.039Zm14.536-15.085v-2.293h-4.813v17.378h5.039v-8.2c0-3.327,1.841-4.845,4.619-4.845.388,0,.711.032,1.131.065v-4.651C-361.811-188.965-363.878-188.093-365.105-186.414Zm13.793,0v-2.293h-4.813v17.378h5.039v-8.2c0-3.327,1.841-4.845,4.619-4.845.388,0,.711.032,1.131.065v-4.651C-348.018-188.965-350.085-188.093-351.313-186.414Zm25.841,6.46c0-5.588-3.941-9.012-9.044-9.012-5.3,0-9.27,3.747-9.27,8.947,0,5.168,3.908,8.947,9.916,8.947,3.133,0,5.556-.969,7.171-2.81l-2.681-2.907a5.891,5.891,0,0,1-4.361,1.68c-2.649,0-4.49-1.324-4.974-3.489h13.147C-325.536-179.017-325.472-179.566-325.472-179.953Zm-9.012-5.2a4.129,4.129,0,0,1,4.264,3.618h-8.56A4.114,4.114,0,0,1-334.484-185.154Zm22.934-3.812a7.608,7.608,0,0,0-5.75,2.293v-2.035h-4.813v17.378h5.039v-8.592c0-3.2,1.744-4.684,4.167-4.684,2.229,0,3.521,1.292,3.521,4.1v9.174h5.039v-9.949C-304.347-186.575-307.447-188.965-311.55-188.965Z" transform="translate(-13865.857 -4495.53)" fill="#fff"/>
    <g id="Group_7171" data-name="Group 7171" transform="translate(-14320.97 -4699)">
      <path id="Union_10" data-name="Union 10" d="M39.747,35.481l-.113-.03a104.914,104.914,0,0,0-13.055-2.565c-.347-1.185-.639-2.4-.87-3.617a39.591,39.591,0,0,1-.549-3.958c-.064-.726-.108-1.462-.131-2.187,1.072.278,2.153.59,3.2.919,1.21.378,2.431.794,3.619,1.238s2.383.924,3.549,1.43a38.948,38.948,0,0,0,5.106,7.4c.012.012.022.024.033.037a.826.826,0,0,1-.792,1.336ZM45,29.819h0ZM28.729,22.453A74.318,74.318,0,0,0,1.6,19.273l-.112.008H1.442a1.435,1.435,0,0,1-.106-2.867h.178q.567-.008,1.132-.007c1.258,0,2.535.036,3.8.1,1.781.093,3.577.251,5.338.471,1.744.217,3.5.5,5.216.84,1.7.337,3.41.738,5.08,1.194,1.655.452,3.314.969,4.93,1.535a73.372,73.372,0,0,1,18,9.27A73.353,73.353,0,0,0,28.729,22.453Zm4.232-1.345h0v0Zm-5.4-2.132c-.781-.274-1.58-.539-2.376-.788.1-1.064.248-2.136.436-3.187s.424-2.111.7-3.146A38.971,38.971,0,0,1,31.738,0,39.094,39.094,0,0,0,32.96,21.108C31.194,20.33,29.376,19.613,27.556,18.975Z" transform="translate(0 3.681)" fill="url(#linear-gradient)"/>
      <path id="Union_11" data-name="Union 11" d="M10.8,35.67c-3.037,0-6.111.132-9.138.392l-.165.014-.049,0H1.434A1.434,1.434,0,0,1,0,34.647,1.226,1.226,0,0,1,.008,34.5l.017-.115a42.231,42.231,0,0,1,2.734-9.93c.6-.015,1.2-.022,1.794-.022,1.267,0,2.547.033,3.807.1,2.061.108,4.14.306,6.18.588s4.085.655,6.085,1.111c.006,1.163.061,2.342.163,3.5a43,43,0,0,0,1.077,6.509A105.685,105.685,0,0,0,10.8,35.67Zm9.606-14.6c-1.708-.466-3.459-.874-5.2-1.221-1.757-.348-3.551-.637-5.333-.859-1.368-.17-2.767-.306-4.156-.4.524-.86,1.086-1.71,1.667-2.533S8.6,14.425,9.234,13.645a42.623,42.623,0,0,1,9.054-8.255h0A42.191,42.191,0,0,1,29.526,0a42.4,42.4,0,0,0-8.632,21.209Z" transform="translate(2.101 0)" fill="url(#linear-gradient-2)"/>
    </g>
  </g>
</svg>
