<svg xmlns="http://www.w3.org/2000/svg" width="80" height="80" viewBox="0 0 80 80">
  <g id="Group_7126" data-name="Group 7126" transform="translate(0)" opacity="0.3">
    <rect id="Rectangle_4189" data-name="Rectangle 4189" width="80" height="80" fill="none"/>
    <g id="Group_7070" data-name="Group 7070" transform="translate(0 16.667)">
      <path id="Path_1235" data-name="Path 1235" d="M68.667,7H2V20.333H68.667Z" transform="translate(-2 -0.333)" fill="#0063f8"/>
      <path id="Path_1236" data-name="Path 1236" d="M65.333,51.667h-60A3.149,3.149,0,0,1,2,48.333v-40A3.149,3.149,0,0,1,5.333,5h60a3.149,3.149,0,0,1,3.333,3.333v40A3.149,3.149,0,0,1,65.333,51.667ZM42,35a3.149,3.149,0,0,0-3.333-3.333H12A3.149,3.149,0,0,0,8.667,35,3.149,3.149,0,0,0,12,38.333H38.667A3.149,3.149,0,0,0,42,35Zm6.667,5a5.127,5.127,0,0,0,5,5H57a5,5,0,0,0,0-10H53.667A5.127,5.127,0,0,0,48.667,40Z" transform="translate(-2 -5)" fill="#0063f8" opacity="0.3"/>
    </g>
  </g>
</svg>
