<svg id="Group_8580" data-name="Group 8580" xmlns="http://www.w3.org/2000/svg" width="67" height="67" viewBox="0 0 67 67">
  <rect id="Rectangle_2425" data-name="Rectangle 2425" width="67" height="67" fill="none"/>
  <circle id="Ellipse_322" data-name="Ellipse 322" cx="28.5" cy="28.5" r="28.5" transform="translate(5 5)" fill="#ff3b3b" opacity="0.3"/>
  <path id="Path_837" data-name="Path 837" d="M20.745,34.9a2.875,2.875,0,1,1-2.875,2.875A2.875,2.875,0,0,1,20.745,34.9Zm-4.051-3.254v-4.77h3.623a7.792,7.792,0,0,0,7.909-8.09,7.792,7.792,0,0,0-7.909-8.09c-4.649,0-7.849,3.5-7.849,8.09H7.336A12.746,12.746,0,0,1,20.317,5.922a12.861,12.861,0,1,1,0,25.72Z" transform="translate(12.664 10.078)" fill="#ff3b3b" fill-rule="evenodd"/>
</svg>
