<svg xmlns="http://www.w3.org/2000/svg" width="24" height="24" viewBox="0 0 24 24">
  <g id="Layer_2" data-name="Layer 2" opacity="1">
    <g id="calendar">
      <rect id="Rectangle_4903" data-name="Rectangle 4903" width="24" height="24" fill="#5800FF" opacity="0"/>
      <path id="Path_1596" data-name="Path 1596" d="M18,4H17V3a1,1,0,0,0-2,0V4H9V3A1,1,0,0,0,7,3V4H6A3,3,0,0,0,3,7V19a3,3,0,0,0,3,3H18a3,3,0,0,0,3-3V7a3,3,0,0,0-3-3ZM6,6H7V7A1,1,0,0,0,9,7V6h6V7a1,1,0,0,0,2,0V6h1a1,1,0,0,1,1,1v4H5V7A1,1,0,0,1,6,6ZM18,20H6a1,1,0,0,1-1-1V13H19v6A1,1,0,0,1,18,20Z" fill="#5800FF"/>
      <circle id="Ellipse_771" data-name="Ellipse 771" cx="1" cy="1" r="1" transform="translate(7 15)" fill="#5800FF"/>
      <path id="Path_1597" data-name="Path 1597" d="M16,15H12a1,1,0,0,0,0,2h4a1,1,0,0,0,0-2Z" fill="#5800FF"/>
    </g>
  </g>
</svg>
