<svg xmlns="http://www.w3.org/2000/svg" width="24" height="24" viewBox="0 0 24 24">
  <g id="Layer_2" data-name="Layer 2" opacity="0.7">
    <g id="close-circle">
      <rect id="Rectangle_4956" data-name="Rectangle 4956" width="24" height="24" fill="#ff3b3b" opacity="0"/>
      <path id="Path_1634" data-name="Path 1634" d="M12,2A10,10,0,1,0,22,12,10,10,0,0,0,12,2Zm0,18a8,8,0,1,1,8-8A8,8,0,0,1,12,20Z" fill="#ff3b3b"/>
      <path id="Path_1635" data-name="Path 1635" d="M14.71,9.29a1,1,0,0,0-1.42,0L12,10.59l-1.29-1.3a1,1,0,0,0-1.42,1.42L10.59,12l-1.3,1.29a1,1,0,1,0,1.42,1.42L12,13.41l1.29,1.3a1,1,0,1,0,1.42-1.42L13.41,12l1.3-1.29a1,1,0,0,0,0-1.42Z" fill="#ff3b3b"/>
    </g>
  </g>
</svg>
