<svg id="Group_8675" data-name="Group 8675" xmlns="http://www.w3.org/2000/svg" width="24.471" height="24" viewBox="0 0 24.471 24">
  <rect id="Rectangle_4923" data-name="Rectangle 4923" width="24" height="24" fill="none"/>
  <path id="Path_1619" data-name="Path 1619" d="M6.9,10.619l-.133,8.869L8.886,21.61l2.121-2.121L9.593,18.074,10.966,16.7,9.552,15.287l1.455-1.455-.123-3.213Z" transform="translate(13.997 -1.564) rotate(45)" fill="#fc0" fill-rule="evenodd" opacity="0.3"/>
  <path id="Path_1620" data-name="Path 1620" d="M15.985,14.985a6,6,0,1,1,6-6A6,6,0,0,1,15.985,14.985Zm.192-5.914a1.5,1.5,0,1,0-1.5-1.5A1.5,1.5,0,0,0,16.178,9.071Z" transform="translate(11.036 -8.672) rotate(45)" fill="#fc0" fill-rule="evenodd"/>
</svg>
