<svg xmlns="http://www.w3.org/2000/svg" width="24" height="24" viewBox="0 0 24 24">
  <g id="Layer_2" data-name="Layer 2" opacity="0.7">
    <g id="checkmark-circle-2">
      <rect id="Rectangle_4955" data-name="Rectangle 4955" width="24" height="24" fill="#05c270" opacity="0"/>
      <path id="Path_1632" data-name="Path 1632" d="M12,2A10,10,0,1,0,22,12,10,10,0,0,0,12,2Zm0,18a8,8,0,1,1,8-8A8,8,0,0,1,12,20Z" fill="#05c270"/>
      <path id="Path_1633" data-name="Path 1633" d="M14.7,8.39l-3.78,5L9.29,11.28a1,1,0,1,0-1.58,1.23l2.43,3.11a1,1,0,0,0,1.58-.01l4.57-6a1.006,1.006,0,0,0-1.6-1.22Z" fill="#05c270"/>
    </g>
  </g>
</svg>
