<svg id="Group_7071" data-name="Group 7071" xmlns="http://www.w3.org/2000/svg" width="24" height="24" viewBox="0 0 24 24">
  <rect id="Rectangle_4189" data-name="Rectangle 4189" width="24" height="24" fill="none"/>
  <g id="Group_7072" data-name="Group 7072" transform="translate(0 0.5)">
    <path id="Path_1229" data-name="Path 1229" d="M20,15H4a2.006,2.006,0,0,1-2-2V7A.945.945,0,0,1,3,6H21a.945.945,0,0,1,1,1v6A2.006,2.006,0,0,1,20,15Zm-7-3H11a1,1,0,0,0-1,1v3a1,1,0,0,0,1,1h2a.945.945,0,0,0,1-1V13A.945.945,0,0,0,13,12Z" fill="#0063f8" opacity="0.3"/>
    <path id="Path_1230" data-name="Path 1230" d="M14,6V5H10V6H8V5a2.006,2.006,0,0,1,2-2h4a2.006,2.006,0,0,1,2,2V6Zm6,9H14v1a1,1,0,0,1-1,1H11a1,1,0,0,1-1-1V15H4a1.689,1.689,0,0,1-1-.3V18a2.006,2.006,0,0,0,2,2H19a2.006,2.006,0,0,0,2-2V14.7A1.689,1.689,0,0,1,20,15Z" fill="#0063f8"/>
  </g>
</svg>
