<svg id="Group_7073" data-name="Group 7073" xmlns="http://www.w3.org/2000/svg" width="24" height="24" viewBox="0 0 24 24">
  <rect id="Rectangle_4189" data-name="Rectangle 4189" width="24" height="24" fill="none"/>
  <g id="Group_7074" data-name="Group 7074" transform="translate(0.107 -0.021)">
    <path id="Path_1231" data-name="Path 1231" d="M18.041,22.041a1,1,0,1,0-1-1A1,1,0,0,0,18.041,22.041Z" fill="#0063f8" opacity="0.3"/>
    <path id="Path_1232" data-name="Path 1232" d="M6.041,22.041a1,1,0,1,0-1-1A1,1,0,0,0,6.041,22.041Z" fill="#0063f8" opacity="0.3"/>
    <path id="Path_1233" data-name="Path 1233" d="M7.041,16.041l12.1-.9a1.268,1.268,0,0,0,1.2-1l1.4-5.8a1,1,0,0,0-1-1.3H5.441Z" fill="#0063f8" opacity="0.3"/>
    <path id="Path_1234" data-name="Path 1234" d="M19.041,20.041h-14a1.193,1.193,0,0,1-.9-.5.908.908,0,0,1,0-1l1.9-3.7-1.9-10.2-1.6-.8a.883.883,0,0,1-.4-1.3.883.883,0,0,1,1.3-.4l2,1a.752.752,0,0,1,.5.7l2,11a1.268,1.268,0,0,1-.1.6l-1.3,2.6h12.5a1,1,0,0,1,0,2Z" fill="#0063f8"/>
  </g>
</svg>
