<svg id="Group_7069" data-name="Group 7069" xmlns="http://www.w3.org/2000/svg" width="24" height="24" viewBox="0 0 24 24">
  <rect id="Rectangle_4189" data-name="Rectangle 4189" width="24" height="24" fill="none"/>
  <g id="Group_7070" data-name="Group 7070">
    <path id="Path_1235" data-name="Path 1235" d="M22,7H2v4H22Z" fill="#0063f8"/>
    <path id="Path_1236" data-name="Path 1236" d="M21,19H3a.945.945,0,0,1-1-1V6A.945.945,0,0,1,3,5H21a.945.945,0,0,1,1,1V18A.945.945,0,0,1,21,19Zm-7-5a.945.945,0,0,0-1-1H5a1,1,0,0,0,0,2h8A.945.945,0,0,0,14,14Zm2,1.5A1.538,1.538,0,0,0,17.5,17h1a1.5,1.5,0,0,0,0-3h-1A1.538,1.538,0,0,0,16,15.5Z" fill="#0063f8" opacity="0.3"/>
  </g>
</svg>
