<svg xmlns="http://www.w3.org/2000/svg" xmlns:xlink="http://www.w3.org/1999/xlink" width="24" height="24" viewBox="0 0 24 24">
  <defs>
    <clipPath id="clip-path">
      <rect id="Rectangle_6880" data-name="Rectangle 6880" width="24" height="24" transform="translate(-13837 -8856)" fill="#05c270"/>
    </clipPath>
  </defs>
  <g id="Mask_Group_35" data-name="Mask Group 35" transform="translate(13837 8856)" clip-path="url(#clip-path)">
    <g id="Group_10188" data-name="Group 10188" transform="translate(-13837 -8856)">
      <path id="Path_2088" data-name="Path 2088" d="M10.081,3.724a2.158,2.158,0,0,1,3.837,0h0A2.158,2.158,0,0,0,16.5,4.791h0A2.158,2.158,0,0,1,19.209,7.5h0a2.158,2.158,0,0,0,1.067,2.576h0a2.158,2.158,0,0,1,0,3.837h0A2.158,2.158,0,0,0,19.209,16.5h0A2.158,2.158,0,0,1,16.5,19.209h0a2.158,2.158,0,0,0-2.576,1.067h0a2.158,2.158,0,0,1-3.837,0h0A2.158,2.158,0,0,0,7.5,19.209h0A2.158,2.158,0,0,1,4.791,16.5h0a2.158,2.158,0,0,0-1.067-2.576h0a2.158,2.158,0,0,1,0-3.837h0A2.158,2.158,0,0,0,4.791,7.5h0A2.158,2.158,0,0,1,7.5,4.791h0a2.158,2.158,0,0,0,2.576-1.067Z" fill="#05c270" opacity="0.3"/>
      <path id="Path_2089" data-name="Path 2089" d="M14.856,9.19a.523.523,0,1,1,.762.715l-3.755,4.751a.571.571,0,0,1-.815.057L8.477,12.427a.571.571,0,0,1,.759-.854l2.135,1.9Z" fill="#05c270"/>
    </g>
  </g>
</svg>
