<svg id="Group_1818" data-name="Group 1818" xmlns="http://www.w3.org/2000/svg" width="69.492" height="58.478" viewBox="0 0 69.492 58.478">
  <g id="cloud-storage-uploading-option" transform="translate(0 0)">
    <path id="Path_358" data-name="Path 358" d="M66.463,101.514a13.7,13.7,0,0,0-7.728-4.9A9.24,9.24,0,0,0,44.947,84.593,18.551,18.551,0,0,0,27.792,73.086a17.854,17.854,0,0,0-13.1,5.429,17.85,17.85,0,0,0-5.429,13.1q0,.47.072,1.556A16.185,16.185,0,0,0,0,107.831a15.615,15.615,0,0,0,4.759,11.454,15.612,15.612,0,0,0,11.455,4.76H55.588a13.9,13.9,0,0,0,13.9-13.9,13.452,13.452,0,0,0-3.023-8.633Z" transform="translate(0.006 -73.084)" fill="#5800FF"/>
  </g>
  <path id="Path_356" data-name="Path 356" d="M142.2,222.609a17.809,17.809,0,0,0-35.618,0v.958a9.776,9.776,0,0,0,.16,1.517,17.753,17.753,0,0,0,17.649,15.333,17.936,17.936,0,0,0,17.649-15.253,9.8,9.8,0,0,0,.16-1.517Z" transform="translate(-93.775 -181.939)" fill="#f3f6f9"/>
  <path id="Path_357" data-name="Path 357" d="M181.034,264.172a2.324,2.324,0,0,0-3.115,0l-5.431,4.632A2.378,2.378,0,0,0,175.6,272.4l1.518-1.278v8.226a2.4,2.4,0,0,0,4.791,0V271.2l1.517,1.278a2.388,2.388,0,0,0,1.517.559,2.515,2.515,0,0,0,1.837-.878,2.334,2.334,0,0,0-.319-3.354Z" transform="translate(-148.941 -231.989)" fill="#5800FF"/>
</svg>
