<svg xmlns="http://www.w3.org/2000/svg" width="191.943" height="39.999" viewBox="0 0 191.943 39.999">
  <path id="Subtraction_14" data-name="Subtraction 14" d="M14263.5,4616c-.452,0-.906-.011-1.387-.033a26.724,26.724,0,0,1-12.48-3.855,48.69,48.69,0,0,1-9.926-7.98c-1.317-1.334-2.634-2.757-3.907-4.134l-.168-.182-.032-.036,0,0c-5.316-5.758-10.812-11.712-18.5-14.545a22.844,22.844,0,0,0-8.11-1.466c-6.524,0-12.789,2.7-18.847,5.309l-.007,0-.01.006c-1,.435-1.893.815-2.718,1.164a27.734,27.734,0,0,1-10.722,2.468,18.606,18.606,0,0,1-5.556-.836c-4.065-1.289-7.353-3.782-10.531-6.193l-.011-.007-.023-.018-.029-.022c-1.458-1.1-2.967-2.242-4.523-3.242A71.651,71.651,0,0,0,14143,4576h191.943c-14.646,1.084-27.137,9.428-35.034,16.238-2.469,2.135-4.814,4.512-7.3,7.028l-.017.017-.038.039-.029.032-.007.007-.075.076c-3.958,4.008-8.051,8.153-12.7,11.28a32.187,32.187,0,0,1-7.512,3.823A26.293,26.293,0,0,1,14263.5,4616Z" transform="translate(-14142.998 -4575.999)" opacity="0.05"/>
</svg>
