<svg xmlns="http://www.w3.org/2000/svg" width="48" height="48" viewBox="0 0 48 48">
  <g id="Layer_2" data-name="Layer 2" transform="translate(-0.157 -0.157)" opacity="0.05">
    <g id="people" transform="translate(0.157 0.157)">
      <rect id="Rectangle_5091" data-name="Rectangle 5091" width="48" height="48" transform="translate(0)" opacity="0"/>
      <path id="Path_1692" data-name="Path 1692" d="M13.023,19.046A8.023,8.023,0,1,0,5,11.023,8.023,8.023,0,0,0,13.023,19.046Zm0-12.035a4.012,4.012,0,1,1-4.012,4.012A4.012,4.012,0,0,1,13.023,7.012Z" transform="translate(4.89 2.878)"/>
      <path id="Path_1693" data-name="Path 1693" d="M20.017,19.035A6.017,6.017,0,1,0,14,13.017,6.017,6.017,0,0,0,20.017,19.035Zm0-8.023a2.006,2.006,0,1,1-2.006,2.006A2.006,2.006,0,0,1,20.017,11.012Z" transform="translate(13.942 6.901)"/>
      <path id="Path_1694" data-name="Path 1694" d="M32.087,15A10.029,10.029,0,0,0,25.949,17.1,14.041,14.041,0,0,0,2,27.031a2.006,2.006,0,1,0,4.012,0,10.029,10.029,0,1,1,20.058,0,2.006,2.006,0,1,0,4.012,0,13.84,13.84,0,0,0-1.725-6.719A6.017,6.017,0,0,1,38.1,25.026a2.006,2.006,0,1,0,4.012,0A10.029,10.029,0,0,0,32.087,15Z" transform="translate(1.872 12.945)"/>
    </g>
  </g>
</svg>
