<svg xmlns="http://www.w3.org/2000/svg" xmlns:xlink="http://www.w3.org/1999/xlink" width="300" height="300" viewBox="0 0 300 300">
  <defs>
    <radialGradient id="radial-gradient" cx="-0.187" cy="1.157" r="1.636" gradientTransform="translate(-0.859 0.197) rotate(-44.174)" gradientUnits="objectBoundingBox">
      <stop offset="0" stop-color="#6500cd"/>
      <stop offset="1" stop-color="#0063f8"/>
    </radialGradient>
  </defs>
  <g id="Group_8675" data-name="Group 8675" transform="translate(-278 3329)">
    <rect id="_300_6" data-name="300_6" width="300" height="300" transform="translate(278 -3329)" fill="url(#radial-gradient)"/>
    <path id="Path_1700" data-name="Path 1700" d="M-41.808-11.087V-.3l-8.833-10.788h-3.4V6.681h4.061V-4.107l8.859,10.788h3.376V-11.087Zm24.5,18.073c5.584,0,9.722-3.884,9.722-9.189s-4.138-9.189-9.722-9.189c-5.61,0-9.722,3.909-9.722,9.189S-22.922,6.986-17.313,6.986Zm0-3.5A5.42,5.42,0,0,1-22.872-2.2a5.42,5.42,0,0,1,5.559-5.686A5.42,5.42,0,0,1-11.754-2.2,5.42,5.42,0,0,1-17.313,3.483Zm35.232,3.2h4.112V-11.087H17.92Zm35.969,0-.051-17.768H50.462L43.913-.046l-6.65-11.042h-3.4V6.681h3.858V-3.752l5.2,8.554h1.853L50-3.98,50.03,6.681Zm25.1,0h4.315L75.363-11.087H71.3L63.382,6.681H67.6l1.574-3.808h8.25Zm-8.5-6.93,2.818-6.8,2.818,6.8Zm34.039,2.97a6.528,6.528,0,0,1-3.2.762A5.484,5.484,0,0,1,95.568-2.2a5.47,5.47,0,0,1,5.813-5.686,6.013,6.013,0,0,1,4.594,2.005l2.64-2.437a9.472,9.472,0,0,0-7.437-3.071c-5.661,0-9.773,3.833-9.773,9.189s4.112,9.189,9.7,9.189a12.261,12.261,0,0,0,7.184-2.259V-2.482h-3.757Zm19.266.66V-.731h8.25v-3.2h-8.25V-7.788h9.341v-3.3H119.708V6.681h13.758v-3.3ZM-51.3,47.929h4.315l-7.945-17.768h-4.061l-7.92,17.768H-62.7l1.574-3.808h8.25ZM-59.8,41l2.818-6.8,2.818,6.8Zm34.319-10.839-5.483,12.692-5.407-12.692h-4.442l7.666,17.768h4.061L-21.4,30.161ZM.38,47.929H4.7L-3.25,30.161H-7.311l-7.92,17.768h4.214l1.574-3.808h8.25ZM-8.124,41l2.818-6.8L-2.489,41Zm22.287,6.93h4.112V30.161H14.163Zm15.941,0H43.126V44.579h-8.91V30.161H30.1Zm36.375,0h4.315L62.849,30.161H58.787l-7.92,17.768h4.214l1.574-3.808H64.9ZM57.975,41l2.818-6.8L63.61,41Zm35.334-2.31a4.271,4.271,0,0,0,2.361-3.909c0-2.767-2.285-4.62-6.727-4.62H80.262V47.929h9.189c4.671,0,7.107-1.777,7.107-4.848A4.388,4.388,0,0,0,93.309,38.69Zm-4.874-5.432c2.005,0,3.1.685,3.1,2.081s-1.091,2.107-3.1,2.107H84.349V33.258Zm.711,11.575h-4.8V40.441h4.8c2.132,0,3.274.711,3.274,2.208C92.421,44.173,91.278,44.833,89.146,44.833Zm18.149,3.1h13.022V44.579h-8.91V30.161H107.3Zm27.033-3.3V40.517h8.25v-3.2h-8.25V33.461h9.341v-3.3H130.242V47.929H144v-3.3Z" transform="translate(389.912 -3197.608)" fill="#fff" opacity="0.4"/>
  </g>
</svg>
