<svg xmlns="http://www.w3.org/2000/svg" width="340.152" height="69.821" viewBox="0 0 340.152 69.821">
  <path id="Subtraction_14" data-name="Subtraction 14" d="M14248.374,1858.821h0a46.783,46.783,0,0,1-15.929-2.719,55.3,55.3,0,0,1-13.462-7.112c-8.322-5.861-15.5-13.635-22.445-21.153l-.014-.015c-4.266-4.617-8.294-8.978-12.565-12.919-12.887-11.859-27.049-20.816-40.957-25.9h340.152v1.566a141.433,141.433,0,0,0-14.125,3.145,134.443,134.443,0,0,0-31.062,12.8c-2.882,1.706-5.729,3.7-8.239,5.461l-.026.019h-.007l-.031.026c-5.756,4.027-11.708,8.191-18.9,10.179a32.657,32.657,0,0,1-8.62,1.149c-6.087,0-12.61-1.639-19.943-5.011-1.436-.661-2.871-1.334-4.722-2.207-10.957-5.162-22.287-10.5-34.354-10.5a40.411,40.411,0,0,0-12.905,2.1c-13.7,4.488-23.76,14.595-33.486,24.369l-.019.018-.172.173c-2.382,2.392-4.844,4.865-7.295,7.173a85.761,85.761,0,0,1-17.972,13.367,52.823,52.823,0,0,1-10.541,4.3,45,45,0,0,1-11.668,1.691l-.329,0h-.023Z" transform="translate(-14142.998 -1789)" opacity="0.05"/>
</svg>
