<svg xmlns="http://www.w3.org/2000/svg" xmlns:xlink="http://www.w3.org/1999/xlink" width="24" height="24" viewBox="0 0 24 24">
  <defs>
    <clipPath id="clip-path">
      <rect id="Rectangle_6879" data-name="Rectangle 6879" width="24" height="24" transform="translate(-14033 -8862)" fill="#5800FF"/>
    </clipPath>
  </defs>
  <g id="Mask_Group_34" data-name="Mask Group 34" transform="translate(14033 8862)" clip-path="url(#clip-path)">
    <g id="Group_10187" data-name="Group 10187" transform="translate(-14032 -8861)">
      <path id="Path_2086" data-name="Path 2086" d="M6,7H3A.945.945,0,0,1,2,6V3A.945.945,0,0,1,3,2H6A.945.945,0,0,1,7,3V6A.945.945,0,0,1,6,7Z" fill="#5800FF"/>
      <path id="Path_2087" data-name="Path 2087" d="M13,7H10A.945.945,0,0,1,9,6V3a.945.945,0,0,1,1-1h3a.945.945,0,0,1,1,1V6A.945.945,0,0,1,13,7Zm8-1V3a.945.945,0,0,0-1-1H17a.945.945,0,0,0-1,1V6a.945.945,0,0,0,1,1h3A.945.945,0,0,0,21,6ZM7,13V10A.945.945,0,0,0,6,9H3a.945.945,0,0,0-1,1v3a.945.945,0,0,0,1,1H6A.945.945,0,0,0,7,13Zm7,0V10a.945.945,0,0,0-1-1H10a.945.945,0,0,0-1,1v3a.945.945,0,0,0,1,1h3A.945.945,0,0,0,14,13Zm7,0V10a.945.945,0,0,0-1-1H17a.945.945,0,0,0-1,1v3a.945.945,0,0,0,1,1h3A.945.945,0,0,0,21,13ZM7,20V17a.945.945,0,0,0-1-1H3a.945.945,0,0,0-1,1v3a.945.945,0,0,0,1,1H6A.945.945,0,0,0,7,20Zm7,0V17a.945.945,0,0,0-1-1H10a.945.945,0,0,0-1,1v3a.945.945,0,0,0,1,1h3A.945.945,0,0,0,14,20Zm7,0V17a.945.945,0,0,0-1-1H17a.945.945,0,0,0-1,1v3a.945.945,0,0,0,1,1h3A.945.945,0,0,0,21,20Z" fill="#5800FF" opacity="0.3"/>
    </g>
  </g>
</svg>
