<svg xmlns="http://www.w3.org/2000/svg" width="48" height="48" viewBox="0 0 48 48">
  <g id="Group_9970" data-name="Group 9970" transform="translate(-1182 -101)" opacity="0.6">
    <rect id="Rectangle_4189" data-name="Rectangle 4189" width="48" height="48" transform="translate(1182 101)" fill="none"/>
    <g id="Group_9969" data-name="Group 9969" transform="translate(1186 105)">
      <rect id="Rectangle_6640" data-name="Rectangle 6640" width="40" height="40" rx="20" fill="#fff" opacity="0.3"/>
      <path id="Path_2023" data-name="Path 2023" d="M13.782,20.08a4.773,4.773,0,0,1,.364-1.96,5.136,5.136,0,0,1,.9-1.372,14.987,14.987,0,0,1,1.4-1.2,9.272,9.272,0,0,0,1.484-1.372A2.4,2.4,0,0,0,18.4,12.66a2.6,2.6,0,0,0-.616-1.68,2.818,2.818,0,0,0-2.352-.784,2.936,2.936,0,0,0-2.52.924,3.5,3.5,0,0,0-.644,2.044l.028.756H8.882a4.783,4.783,0,0,1-.112-.98,5.437,5.437,0,0,1,.784-2.884,5.373,5.373,0,0,1,2.324-2.072,8.711,8.711,0,0,1,3.808-.756,7.384,7.384,0,0,1,4.62,1.316,4.321,4.321,0,0,1,1.708,3.668,5.668,5.668,0,0,1-.42,2.3,5.01,5.01,0,0,1-1.008,1.54,15.681,15.681,0,0,1-1.54,1.316,10.247,10.247,0,0,0-1.624,1.484,2.6,2.6,0,0,0-.5,1.652v.924H13.782Zm-.168,3.136h3.472v3.556H13.614Z" transform="translate(4.77 3.228)" fill="#fff"/>
    </g>
  </g>
</svg>
