<svg xmlns="http://www.w3.org/2000/svg" width="77.016" height="121.5" viewBox="0 0 77.016 121.5">
  <g id="Group_8468" data-name="Group 8468" transform="translate(-3.25 -89.083)" opacity="0.1">
    <path id="Path_1598" data-name="Path 1598" d="M10.324,190.936c4.149-.215,9.279,2.2,9.722,6.7.321,3.271.222,6.533.719,9.8a26.411,26.411,0,0,0,2.387,7.494c1.1,2.287,3.393,4.233,3.988,6.675a10.461,10.461,0,0,1-.356,5.268c-.636,1.851-.3,1.7.97,3.258a42.147,42.147,0,0,1,6.3,9.8c2.279,5.236,3.773,11.356,2.927,17.088-.107.728-.235,3.34-1.239,3.522-1.121.2-.6-1.289-.537-1.772a31.5,31.5,0,0,0,.26-8.9c-1.776-12.065-10.445-20.014-16.09-30.253-.31-.528-.965-1.785-1.421-2.615-.719-1.31-1.442-3.8-2.416-4.773-1.833-1.829-.148,1.849.209,2.551.452.888.949,1.832,1.412,2.61,2.118,3.607,4.482,7.545,6.669,11.264-9.46,2.152-16.123-9.2-18.662-16.667C3.08,205.841.577,191.462,10.324,190.936Z" transform="translate(0 -66.879)" fill-rule="evenodd" opacity="0.7"/>
    <path id="Path_1599" data-name="Path 1599" d="M126.645,157.622c-6.935.549-11.387,5.118-13.46,11.507-1.117,3.444-1.245,6.981-1.865,10.52a22.465,22.465,0,0,1-6.87,13.152,13.243,13.243,0,0,0-2.749,3.671A15.635,15.635,0,0,0,98.526,201a8.352,8.352,0,0,0-.133,7.277,7.457,7.457,0,0,0,1.95,2.391,46.8,46.8,0,0,0-4.619,21.051c.116,4.358.329,8.719.578,13.072.067,1.169.448,3.1,1.021,1.139.524-1.793-.133-4.608-.194-6.481-.3-9.125-.549-17.422,3.214-25.948.394-.894.813-1.78,1.249-2.659a.811.811,0,0,0,.073-.05c.016.013.032.027.048.039.028-.049.066-.108.11-.174a2.349,2.349,0,0,0,.338-.473,3.43,3.43,0,0,0,.714-1.3s0-.006,0-.008a122.893,122.893,0,0,1,7.722-10.9c-.021.025,2.956-4.02,2.5-1.783-.222,1.078-2.411,3.132-3.3,4.273a106.4,106.4,0,0,0-6.162,8.873,4.474,4.474,0,0,0-.882,1.41c-.145.273-.28.548-.413.788,6.763,2.231,12.024-2.263,15.611-7.489l.012-.019a22.71,22.71,0,0,1,3.607-4.02c2.331-1.9,4.827-2.241,7.575-3.179,7.494-2.556,10.681-12.253,11.693-19.447C141.981,169.268,136.4,156.821,126.645,157.622Z" transform="translate(-60.719 -44.986)" fill-rule="evenodd" opacity="0.7"/>
    <path id="Path_1600" data-name="Path 1600" d="M110.534,89.905c-7.118,7.4-10.557,17.653-13.279,27.3a124.011,124.011,0,0,0-5.127,32.905c-.051,7.357-.251,14.76.179,22.109a78.07,78.07,0,0,0,.828,7.806c.034.212.961,5.977,1.848,4.634.5-.764-.95-5.98-1.06-6.849a112.083,112.083,0,0,1-.732-14.751c.05-8.115-.19-16.188.634-24.273a27.319,27.319,0,0,1,.507-3.656c.3-1.255-.083-.707.91-1.2.965-.483,2.158-.414,3.159-1.021,3.973-2.4,6-8.581,7.586-12.634a77.562,77.562,0,0,0,3.787-14.454,101.711,101.711,0,0,0,1.366-10.775,28.052,28.052,0,0,1,.312-3.465,7.815,7.815,0,0,0,.354-1.109c-.023-.569-.367-.9-.4-1.381Q110.964,89.485,110.534,89.905Z" transform="translate(-58.307)" fill-rule="evenodd" opacity="0.7"/>
    <path id="Path_1601" data-name="Path 1601" d="M32.865,378.5a22.182,22.182,0,0,0,44.364,0" transform="translate(-19.448 -190.064)" fill-rule="evenodd" opacity="0.7"/>
    <path id="Path_1602" data-name="Path 1602" d="M100.423,341.433H99.251a39.184,39.184,0,0,1,.435-4.386c.94-5.552,3.88-13.707,10.328-14.608a16.7,16.7,0,0,1,2.173.023,3.925,3.925,0,0,1,1.658-.489c5.49-.4,11.621,4.018,14.269,8.619,2.135,3.71,1.775,8.582.457,12.523-.883,2.639-2.81,6.4-6.024,6.438-4.021.046-4.215-4.915-4.293-7.815-.1-3.856-.591-7.215-3.635-9.843-.709-.612-1.484-1.151-2.2-1.755-1.122-.945-2.362-1.913-2.506-3.476-.2-2.157,1.02-2.545,2.882-2.144.318.068,3.515,1.5,3.042.368a2.108,2.108,0,0,0-1.339-.825,25.123,25.123,0,0,0-4.372-.275c-6.38,1.4-8.864,10.22-9.523,15.825C100.531,340.218,100.473,340.825,100.423,341.433Z" transform="translate(-63.044 -152.924)" fill-rule="evenodd" opacity="0.7"/>
  </g>
</svg>
