<svg xmlns="http://www.w3.org/2000/svg" xmlns:xlink="http://www.w3.org/1999/xlink" width="328" height="144" viewBox="0 0 328 144">
  <defs>
    <linearGradient id="linear-gradient" x1="0.5" x2="0.5" y2="2.43" gradientUnits="objectBoundingBox">
      <stop offset="0" stop-color="#70f"/>
      <stop offset="1" stop-color="#3b1567"/>
    </linearGradient>
  </defs>
  <path id="_401-number" data-name="401-number" d="M-39.4-56.278H-62.2V-82.334H-92.8v26.055h-37.6l61.2-83.735h-34l-66,88.309v21.68h75.4V-.787h31.6V-30.024h22.8ZM30.2,1.6c34.6,0,60-26.055,60-72s-25.4-72-60-72c-34.4,0-60,26.055-60,72S-4.2,1.6,30.2,1.6Zm0-27.249C14.2-25.649,3-38.776,3-70.4s11.2-44.751,27.2-44.751c16.2,0,27.4,13.127,27.4,44.751S46.4-25.649,30.2-25.649ZM98.4-140.013v25.856h28V-.787h32.4V-140.013Z" transform="translate(169.2 142.4)" fill="url(#linear-gradient)"/>
</svg>