<svg xmlns="http://www.w3.org/2000/svg" xmlns:xlink="http://www.w3.org/1999/xlink" width="376" height="144" viewBox="0 0 376 144">
  <defs>
    <linearGradient id="linear-gradient" x1="0.5" x2="0.5" y2="2.265" gradientUnits="objectBoundingBox">
      <stop offset="0" stop-color="#70f"/>
      <stop offset="1" stop-color="#3b1567"/>
    </linearGradient>
  </defs>
  <path id="_403-number" data-name="403-number" d="M-59.207-56.278H-81.97V-82.334h-30.551v26.055h-37.54l61.1-83.735h-33.946L-188.8-51.7v21.68h75.28V-.787h31.55V-30.024h22.764ZM10.282,1.6c34.545,0,59.9-26.055,59.9-72s-25.36-72-59.9-72c-34.345,0-59.9,26.055-59.9,72S-24.063,1.6,10.282,1.6Zm0-27.249c-15.975,0-27.157-13.127-27.157-44.751s11.182-44.751,27.157-44.751c16.174,0,27.356,13.127,27.356,44.751S26.456-25.649,10.282-25.649Zm138.978-57.68,31.55-35.8v-20.884H82.966v25.856h59.505l-28.754,32.42v21.282h14.776c18.371,0,26.158,6.564,26.158,17.1,0,11.337-9.984,17.9-26.158,17.9-14.577,0-29.353-4.575-39.936-12.53L75.977-13.317C89.556-3.77,109.724,1.6,129.292,1.6c39.737,0,57.908-21.481,57.908-44.95C187.2-63.836,174.42-79.35,149.261-83.328Z" transform="translate(188.8 142.4)" fill="url(#linear-gradient)"/>
</svg>