<svg xmlns="http://www.w3.org/2000/svg" xmlns:xlink="http://www.w3.org/1999/xlink" width="324" height="144" viewBox="0 0 324 144">
  <defs>
    <linearGradient id="linear-gradient" x1="0.5" x2="0.5" y2="2.198" gradientUnits="objectBoundingBox">
      <stop offset="0" stop-color="#70f"/>
      <stop offset="1" stop-color="#3b1567"/>
    </linearGradient>
  </defs>
  <path id="_419-number" data-name="419-number" d="M-33.54-56.278H-56.3V-82.334H-86.841v26.055h-37.53l61.087-83.735H-97.222L-163.1-51.7v21.68h75.261V-.787H-56.3V-30.024H-33.54Zm-1.8-83.735v25.856H-7.388V-.787h32.34V-140.013ZM98.416-142.4c-29.545,0-52.9,17.9-52.9,46.343C45.514-69.8,66.674-52.7,93.625-52.7c14.573,0,26.551-4.376,34.736-12.53-1,26.851-16.17,40.575-39.327,40.575-9.582,0-18.566-1.79-26.152-6.961L50.9-7.947C60.686-1.781,74.859,1.6,89.632,1.6c42.322,0,71.268-26.851,71.268-74.983C160.9-118.334,137.144-142.4,98.416-142.4Zm2.4,65.635c-14.373,0-23.756-8.155-23.756-20.884s9.582-20.685,23.357-20.685c15.372,0,24.355,8.751,24.355,20.685C124.767-85.516,114.985-76.765,100.811-76.765Z" transform="translate(163.1 142.4)" fill="url(#linear-gradient)"/>
</svg>