<svg xmlns="http://www.w3.org/2000/svg" xmlns:xlink="http://www.w3.org/1999/xlink" width="368" height="144" viewBox="0 0 368 144">
  <defs>
    <linearGradient id="linear-gradient" x1="0.5" x2="0.5" y2="2.59" gradientUnits="objectBoundingBox">
      <stop offset="0" stop-color="#70f"/>
      <stop offset="1" stop-color="#3b1567"/>
    </linearGradient>
  </defs>
  <path id="_429-number" data-name="429-number" d="M-55.682-56.278H-78.432V-82.334h-30.534v26.055h-37.518l61.067-83.735h-33.926L-185.2-51.7v21.68h75.236V-.787h31.531V-30.024h22.751ZM-2.2-27.041l32.13-30.232C49.49-75.372,53.282-87.7,53.282-101.229c0-25.26-20.755-41.171-51.887-41.171-25.145,0-44.7,10.144-55.479,25.856l23.549,15.116c6.785-9.348,16.963-13.923,28.937-13.923,14.768,0,22.351,6.365,22.351,17.3,0,6.762-2.2,13.923-14.568,25.657L-47.7-21.671V-.787H57.872V-27.041ZM120.336-142.4c-29.536,0-52.885,17.9-52.885,46.343C67.451-69.8,88.6-52.7,115.546-52.7c14.568,0,26.542-4.376,34.725-12.53-1,26.851-16.165,40.575-39.315,40.575-9.579,0-18.56-1.79-26.143-6.961L72.839-7.947C82.618-1.781,96.787,1.6,111.555,1.6c42.308,0,71.245-26.851,71.245-74.983C182.8-118.334,159.052-142.4,120.336-142.4Zm2.395,65.635c-14.369,0-23.748-8.155-23.748-20.884s9.579-20.685,23.349-20.685c15.367,0,24.347,8.751,24.347,20.685C146.678-85.516,136.9-76.765,122.731-76.765Z" transform="translate(185.2 142.4)" fill="url(#linear-gradient)"/>
</svg>