<svg xmlns="http://www.w3.org/2000/svg" xmlns:xlink="http://www.w3.org/1999/xlink" width="380" height="144" viewBox="0 0 380 144">
  <defs>
    <linearGradient id="linear-gradient" x1="0.5" x2="0.5" y2="2.589" gradientUnits="objectBoundingBox">
      <stop offset="0" stop-color="#70f"/>
      <stop offset="1" stop-color="#3b1567"/>
    </linearGradient>
  </defs>
  <path id="_500-number" data-name="500-number" d="M-139.585-87.7h-11.382l2.2-26.453h58.308v-25.856h-85.265l-7.189,78.365h35.744c25.36,0,32.549,7.16,32.549,18.1,0,11.337-9.984,18.1-26.159,18.1-14.577,0-29.154-4.575-39.737-12.53L-193.3-13.317C-179.721-3.77-159.354,1.6-139.984,1.6c39.937,0,58.108-21.481,58.108-46.144S-98.25-87.7-139.585-87.7ZM-8.791,1.6c34.545,0,59.905-26.055,59.905-72s-25.36-72-59.905-72c-34.346,0-59.905,26.055-59.905,72S-43.137,1.6-8.791,1.6Zm0-27.249c-15.975,0-27.157-13.127-27.157-44.751s11.182-44.751,27.157-44.751c16.174,0,27.357,13.127,27.357,44.751S7.383-25.649-8.791-25.649ZM126.795,1.6c34.545,0,59.905-26.055,59.905-72s-25.36-72-59.905-72c-34.346,0-59.905,26.055-59.905,72S92.449,1.6,126.795,1.6Zm0-27.249c-15.975,0-27.157-13.127-27.157-44.751s11.182-44.751,27.157-44.751c16.174,0,27.357,13.127,27.357,44.751S142.969-25.649,126.795-25.649Z" transform="translate(193.3 142.4)" fill="url(#linear-gradient)"/>
</svg>