<svg xmlns="http://www.w3.org/2000/svg" xmlns:xlink="http://www.w3.org/1999/xlink" width="362" height="144" viewBox="0 0 362 144">
  <defs>
    <linearGradient id="linear-gradient" x1="0.5" x2="0.5" y2="2.521" gradientUnits="objectBoundingBox">
      <stop offset="0" stop-color="#70f"/>
      <stop offset="1" stop-color="#3b1567"/>
    </linearGradient>
  </defs>
  <path id="_503-number" data-name="503-number" d="M-129.8-87.7h-11.4l2.2-26.453h58.4v-25.856H-166l-7.2,78.365h35.8c25.4,0,32.6,7.16,32.6,18.1,0,11.337-10,18.1-26.2,18.1-14.6,0-29.2-4.575-39.8-12.53l-12.8,24.663C-170-3.77-149.6,1.6-130.2,1.6c40,0,58.2-21.481,58.2-46.144S-88.4-87.7-129.8-87.7ZM1.2,1.6c34.6,0,60-26.055,60-72s-25.4-72-60-72c-34.4,0-60,26.055-60,72S-33.2,1.6,1.2,1.6Zm0-27.249c-16,0-27.2-13.127-27.2-44.751s11.2-44.751,27.2-44.751c16.2,0,27.4,13.127,27.4,44.751S17.4-25.649,1.2-25.649Zm139.2-57.68,31.6-35.8v-20.884H74v25.856h59.6l-28.8,32.42v21.282h14.8c18.4,0,26.2,6.564,26.2,17.1,0,11.337-10,17.9-26.2,17.9-14.6,0-29.4-4.575-40-12.53L67-13.317C80.6-3.77,100.8,1.6,120.4,1.6c39.8,0,58-21.481,58-44.95C178.4-63.836,165.6-79.35,140.4-83.328Z" transform="translate(183.6 142.4)" fill="url(#linear-gradient)"/>
</svg>