
<svg xmlns="http://www.w3.org/2000/svg" xmlns:xlink="http://www.w3.org/1999/xlink" width="757" height="273" viewBox="0 0 757 273">
  <defs>
    <clipPath id="clip-path">
      <rect id="Rectangle_5133" data-name="Rectangle 5133" width="757" height="273" transform="translate(154 592.57)" fill="#fff"/>
    </clipPath>
    <linearGradient id="linear-gradient" x1="0.583" x2="1.063" y2="0.881" gradientUnits="objectBoundingBox">
      <stop offset="0" stop-color="#70f"/>
      <stop offset="1" stop-color="#486dff"/>
    </linearGradient>
    <linearGradient id="linear-gradient-8" x1="0.628" y1="0.674" x2="-0.027" y2="-0.073" xlink:href="#linear-gradient"/>
    <linearGradient id="linear-gradient-9" x1="0.711" y1="0.252" x2="-0.073" y2="0.035" xlink:href="#linear-gradient"/>
  </defs>
  <g id="other-pattern-bottom" transform="translate(-154 -592.57)" clip-path="url(#clip-path)">
    <rect id="Rectangle_5125" data-name="Rectangle 5125" width="1160.19" height="1160.19" rx="2" transform="translate(154.118 707.051) rotate(45)" opacity="0.06" fill="url(#linear-gradient)"/>
    <rect id="Rectangle_5127" data-name="Rectangle 5127" width="1287.629" height="1287.629" rx="2" transform="translate(352.49 602.512) rotate(45)" opacity="0.02" fill="url(#linear-gradient)"/>
    <path id="Path_1700" data-name="Path 1700" d="M3.948,0H1156.243a3.948,3.948,0,0,1,3.948,3.948V1156.242a3.948,3.948,0,0,1-3.948,3.948H3.948A3.948,3.948,0,0,1,0,1156.242V3.948A3.948,3.948,0,0,1,3.948,0Z" transform="translate(353.477 676.834) rotate(45)" opacity="0.6" fill="url(#linear-gradient)"/>
    <path id="Path_1701" data-name="Path 1701" d="M3.948,0H1156.243a3.948,3.948,0,0,1,3.948,3.948V1156.242a3.948,3.948,0,0,1-3.948,3.948H3.948A3.948,3.948,0,0,1,0,1156.242V3.948A3.948,3.948,0,0,1,3.948,0Z" transform="translate(353.477 775.526) rotate(45)" opacity="0.6" fill="url(#linear-gradient)"/>
    <rect id="Rectangle_5128" data-name="Rectangle 5128" width="852.27" height="852.269" rx="2" transform="translate(688.045 663.626) rotate(45)" opacity="0.02" fill="url(#linear-gradient)"/>
    <rect id="Rectangle_5129" data-name="Rectangle 5129" width="852.27" height="852.269" rx="2" transform="translate(549.498 707.051) rotate(45)" opacity="0.06" fill="url(#linear-gradient)"/>
    <rect id="Rectangle_5130" data-name="Rectangle 5130" width="852.27" height="852.269" rx="2" transform="translate(16.936 663.626) rotate(45)" opacity="0.02" fill="url(#linear-gradient)"/>
    <rect id="Rectangle_5131" data-name="Rectangle 5131" width="1160.19" height="1160.19" rx="2" transform="translate(551.471 800.502) rotate(45)" opacity="0.05" fill="url(#linear-gradient-8)"/>
    <rect id="Rectangle_5132" data-name="Rectangle 5132" width="1160.19" height="1160.19" rx="2" transform="translate(154.727 800.502) rotate(45)" opacity="0.05" fill="url(#linear-gradient-9)"/>
  </g>
</svg>
